<svg xmlns="http://www.w3.org/2000/svg" width="15.023" height="20.031" viewBox="0 0 15.023 20.031"><defs><style>.cls-1{fill:#4492da}</style></defs><g id="lock" transform="translate(-64)"><g id="Group_387" data-name="Group 387" transform="translate(64)"><path id="Path_190" d="M78.606 7.512h-1.252v-1.67a5.842 5.842 0 1 0-11.685 0v1.67h-1.252a.417.417 0 0 0-.417.417v10.433a1.671 1.671 0 0 0 1.669 1.669h11.685a1.671 1.671 0 0 0 1.669-1.669V7.929a.417.417 0 0 0-.417-.417zm-5.845 8.718a.417.417 0 0 1-.415.463h-1.669a.417.417 0 0 1-.415-.463l.263-2.367a1.651 1.651 0 0 1-.683-1.342 1.669 1.669 0 0 1 3.339 0 1.651 1.651 0 0 1-.683 1.342zm2.089-8.718h-6.677v-1.67a3.339 3.339 0 1 1 6.677 0z" class="cls-1" data-name="Path 190" transform="translate(-64)"/></g></g></svg>