<svg xmlns="http://www.w3.org/2000/svg" width="18.226" height="21.666" viewBox="0 0 18.226 21.666">
  <g id="Group_272" data-name="Group 272" transform="translate(-1368.5 -1031.5)">
    <g id="Group_103" data-name="Group 103" transform="translate(2 -2)">
      <path id="Path_124" data-name="Path 124" d="M.861,0H5.126l.928.861c6.233,6.215,11.154,11.275,11.167,11.315s0,1.076,0,1.076v3.108a.861.861,0,0,1-.861.861H.861A.861.861,0,0,1,0,16.361V.861A.861.861,0,0,1,.861,0Z" transform="translate(1367 1034)" fill="#fff" stroke="#388ccb" stroke-width="1"/>
      <g id="Group_102" data-name="Group 102" transform="translate(1368.722 1035.722)">
        <rect id="Rectangle_222" data-name="Rectangle 222" width="13.777" height="12.916" rx="1" transform="translate(0 0)" fill="#fff" stroke="#388ccb" stroke-width="1"/>
        <path id="Path_120" data-name="Path 120" d="M17291.148,1039.7h9.613" transform="translate(-17289.299 -1036.514)" fill="#fff" stroke="#388ccb" stroke-linecap="round" stroke-width="1"/>
        <path id="Path_121" data-name="Path 121" d="M17291.148,1039.7h9.613" transform="translate(-17289.299 -1034.792)" fill="#fff" stroke="#388ccb" stroke-linecap="round" stroke-width="1"/>
        <path id="Path_122" data-name="Path 122" d="M17291.148,1039.7h9.613" transform="translate(-17289.299 -1033.069)" fill="#fff" stroke="#388ccb" stroke-linecap="round" stroke-width="1"/>
        <path id="Path_123" data-name="Path 123" d="M17291.148,1039.7h9.613" transform="translate(-17289.299 -1031.347)" fill="#fff" stroke="#388ccb" stroke-linecap="round" stroke-width="1"/>
      </g>
      <path id="Path_119" data-name="Path 119" d="M.861,0H5.126l.928.861c6.233,6.215,11.154,11.275,11.167,11.315s0,1.076,0,1.076v3.108a.861.861,0,0,1-.861.861H.861A.861.861,0,0,1,0,16.361V.861A.861.861,0,0,1,.861,0Z" transform="translate(1367 1037.444)" fill="#fff" stroke="#388ccb" stroke-width="1"/>
    </g>
  </g>
</svg>
