<svg xmlns="http://www.w3.org/2000/svg" width="75.018" height="84.69" viewBox="0 0 75.018 84.69">
  <g id="Group_148" data-name="Group 148" transform="matrix(0.819, 0.574, -0.574, 0.819, -10.012, -424.184)">
    <path id="Path_87" data-name="Path 87" d="M325.31,350.465c-.015-.31-.011-.623-.044-.929-.081-.725-.143-1.454-.271-2.174-.117-.655-.235-1.3-.4-1.949-.077-.306-.154-.616-.227-.922-.088-.349-.216-.693-.327-1.034-.2-.631-.429-1.246-.66-1.869-.227-.608-.5-1.2-.766-1.8-.3-.7-.653-1.365-1-2.04-.293-.577-.653-1.126-.986-1.682s-.731-1.094-1.1-1.64-.789-1.041-1.189-1.555a36.145,36.145,0,0,0-2.7-3.069c-.425-.44-.843-.879-1.3-1.294-.487-.45-.964-.925-1.478-1.355l-1.75-1.467c-.529-.443-1.108-.834-1.662-1.246a31.845,31.845,0,0,0-3.379-2.206c-1.184-.672-2.377-1.327-3.609-1.918-1.072-.51-2.165-.953-3.28-1.368-1.019-.38-2.079-.655-3.125-.965-.928-.274-1.878-.489-2.817-.731q-1.6-.417-3.21-.806a2.006,2.006,0,0,0-.471-.056,1.856,1.856,0,0,0-1.811,1.3,1.791,1.791,0,0,0,1.3,2.189q2.73.723,5.459,1.457c.81.218,1.611.472,2.414.714.768.229,1.512.506,2.261.786.7.292,1.4.585,2.072.921l1.551.77c.444.218.87.475,1.3.711.337.183.678.356,1,.559.532.338,1.068.676,1.6,1.01.653.413,1.267.881,1.888,1.335.664.536,1.351,1.053,1.99,1.621.737.65,1.478,1.294,2.175,1.984.375.366.745.731,1.116,1.1s.716.785,1.068,1.172c.547.6,1.053,1.23,1.562,1.86q.566.792,1.138,1.588c.378.524.7,1.1,1.045,1.644.331.521.6,1.087.9,1.629.262.477.477.983.705,1.475a34.756,34.756,0,0,1,1.331,3.637c.1.338.2.679.293,1.017.111.373.169.767.254,1.143.116.536.193,1.076.271,1.618.048.552.121,1.1.132,1.655.014.672.029,1.341.018,2.013s-.048,1.337-.091,2.005c-.036.586-.107,1.167-.171,1.749a43.983,43.983,0,0,1-1.176,5.707c-.29,1.01-.583,2.016-.928,3.011s-.705,1.952-1.1,2.917c-.908,2.044-1.889,4.053-2.987,6.01a41.715,41.715,0,0,1-3.68,5.421l.052-.061-.1.117-.007.009.006-.007c-.315.387-.629.774-.951,1.156-.1-.071-.19-.15-.287-.221-1.479-1.058-3.078-1.952-4.483-3.1-.3-.246-.6-.493-.91-.721a.526.526,0,0,0-.7.092c0,.006,0,.014-.009.02a.324.324,0,0,0-.127.216c-.088.714-.158,1.432-.3,2.139-.158.805-.345,1.6-.554,2.4.011-.035.018-.067.029-.1-.227.83-.47,1.653-.752,2.466-.308.886-.66,1.756-1.042,2.614-.4.884-.837,1.749-1.288,2.608s-.939,1.682-1.412,2.519l-.2.348a.45.45,0,0,0,.154.542.487.487,0,0,0,.1.045.5.5,0,0,0,.612.191,2.508,2.508,0,0,1,.439-.174l-.047.012.053-.014.072-.022-.055.018c.322-.083.647-.151.965-.243s.634-.193.954-.287c.9-.24,1.8-.443,2.692-.726.909-.288,1.808-.615,2.7-.964.913-.362,1.8-.781,2.681-1.207.477-.232.95-.467,1.419-.711.24-.1.486-.188.723-.292.727-.313,1.46-.623,2.161-.985a9.511,9.511,0,0,0,1.126-.651,3.283,3.283,0,0,0,.521-.456,2.186,2.186,0,0,0,.236-.165,1.682,1.682,0,0,0,.371-.5.375.375,0,0,0-.063-.417.923.923,0,0,0-.424-.468,4.233,4.233,0,0,0-.455-.25c-.149-.069-.3-.133-.449-.209l.064.037-.081-.046-.008,0,.007,0c-.062-.036-.124-.071-.187-.105a6.4,6.4,0,0,1-.6-.38c-.191-.137-.378-.282-.564-.426-.375-.3-.741-.609-1.112-.914-.33-.27-.678-.517-1.016-.776.622-.682,1.245-1.363,1.842-2.066.833-.981,1.585-2.02,2.334-3.061.733-1.017,1.38-2.083,2.021-3.156s1.229-2.16,1.78-3.269c.594-1.207,1.2-2.414,1.688-3.666.472-1.2.935-2.407,1.305-3.642.4-1.33.767-2.664,1.075-4.022a32.9,32.9,0,0,0,.638-3.871c.074-.707.136-1.407.177-2.118.04-.655.048-1.312.062-1.967C325.343,350.961,325.321,350.711,325.31,350.465Z" transform="translate(0 0)" fill="#388ccb"/>
    <path id="Path_88" data-name="Path 88" d="M314.085,387.131l-.061.081v0Z" transform="translate(-1.613 -12.509)" fill="#388ccb"/>
    <path id="Path_89" data-name="Path 89" d="M301.586,401.664l.031-.008-.023.005Z" transform="translate(-0.848 -8.553)" fill="#388ccb"/>
    <path id="Path_90" data-name="Path 90" d="M317.754,392.184l-.024-.013h0Z" transform="translate(-1.833 -11.136)" fill="#388ccb"/>
  </g>
</svg>
