<svg xmlns="http://www.w3.org/2000/svg" width="146.25" height="29.746" viewBox="0 0 146.25 29.746">
  <g id="Group_323" data-name="Group 323" transform="translate(-894 -440)">
    <g id="mc_symbol" transform="translate(894 440)">
      <g id="Group_314" data-name="Group 314" opacity="0">
        <rect id="Rectangle_329" data-name="Rectangle 329" width="44.975" height="29.746" fill="#fff"/>
      </g>
      <rect id="Rectangle_330" data-name="Rectangle 330" width="11.864" height="19.378" transform="translate(16.557 5.182)" fill="#ff5f00"/>
      <path id="Path_178" data-name="Path 178" d="M22.676,19.776a12.3,12.3,0,0,1,4.707-9.687,12.323,12.323,0,1,0,0,19.378,12.3,12.3,0,0,1-4.707-9.691Z" transform="translate(-4.897 -4.903)" fill="#eb001b"/>
      <path id="Path_179" data-name="Path 179" d="M120.046,64.839v-.4h.171V64.36h-.407v.082h.161v.4Zm.791,0V64.36h-.123l-.144.342-.144-.342H120.3v.479h.089v-.363l.134.312h.092l.133-.312v.363Z" transform="translate(-78.799 -42.33)" fill="#f79e1b"/>
      <path id="Path_180" data-name="Path 180" d="M85.629,19.767A12.323,12.323,0,0,1,65.69,29.454a12.323,12.323,0,0,0,0-19.378,12.323,12.323,0,0,1,19.939,9.687Z" transform="translate(-43.204 -4.894)" fill="#f79e1b"/>
    </g>
    <g id="Logo_Visa" transform="translate(963.21 443.49)">
      <path id="polygon10" d="M31.018,23.338,34.918.454h6.237l-3.9,22.884Z" transform="translate(-3.878 -0.057)" fill="#004686"/>
      <path id="path12" d="M61.324.961A16.09,16.09,0,0,0,55.734,0c-6.163,0-10.5,3.1-10.541,7.552-.035,3.288,3.1,5.122,5.465,6.217,2.428,1.121,3.244,1.837,3.232,2.839-.015,1.533-1.939,2.234-3.732,2.234a13.079,13.079,0,0,1-5.871-1.2l-.8-.364L42.608,22.4a19.742,19.742,0,0,0,6.948,1.221c6.557,0,10.813-3.068,10.861-7.818.024-2.6-1.638-4.584-5.237-6.217C53,8.526,51.665,7.82,51.68,6.748c0-.951,1.13-1.968,3.572-1.968a11.492,11.492,0,0,1,4.668.877l.559.264L61.324.961Z" transform="translate(-5.327 0)" fill="#004686"/>
      <path id="path14" d="M79.8.478H74.98a3.1,3.1,0,0,0-3.266,1.9L62.45,23.348H69s1.071-2.819,1.313-3.438c.716,0,7.078.01,7.988.01.187.8.759,3.429.759,3.429h5.788L79.8.478m-7.692,14.75c.516-1.319,2.485-6.4,2.485-6.4-.037.06.512-1.325.827-2.184l.422,1.972s1.194,5.463,1.444,6.608Z" transform="translate(-7.808 -0.06)" fill="#004686"/>
      <path id="path16" d="M22.839.473,16.733,16.078l-.651-3.171c-1.137-3.656-4.679-7.616-8.639-9.6L13.027,23.32l6.6-.008L29.446.473H22.839Z" transform="translate(-0.931 -0.059)" fill="#004686"/>
      <path id="path18" d="M10.137.457H.08L0,.933C7.825,2.827,13,7.405,15.152,12.905L12.965,2.389C12.587.94,11.492.508,10.137.457Z" transform="translate(0 -0.057)" fill="#ef9b11"/>
    </g>
  </g>
</svg>
