<svg xmlns="http://www.w3.org/2000/svg" width="17.593" height="21.661" viewBox="0 0 17.593 21.661">
  <g id="delete" transform="translate(21.003 0.002)">
    <path id="Path_160" data-name="Path 160" d="M222.905,154.7a.507.507,0,0,0-.507.507V164.8a.507.507,0,1,0,1.015,0V155.21A.507.507,0,0,0,222.905,154.7Zm0,0" transform="translate(-232.119 -146.857)" fill="#fff"/>
    <path id="Path_161" data-name="Path 161" d="M104.905,154.7a.507.507,0,0,0-.507.507V164.8a.507.507,0,1,0,1.015,0V155.21A.507.507,0,0,0,104.905,154.7Zm0,0" transform="translate(-120.105 -146.857)" fill="#fff"/>
    <path id="Path_162" data-name="Path 162" d="M1.437,6.447v12.5a2.8,2.8,0,0,0,.744,1.93,2.5,2.5,0,0,0,1.813.784h9.6a2.5,2.5,0,0,0,1.813-.784,2.8,2.8,0,0,0,.744-1.93V6.447a1.938,1.938,0,0,0-.5-3.811h-2.6V2a1.993,1.993,0,0,0-2.009-2h-4.5A1.993,1.993,0,0,0,4.532,2v.634h-2.6a1.938,1.938,0,0,0-.5,3.811Zm12.155,14.2h-9.6a1.607,1.607,0,0,1-1.542-1.7V6.492H15.134V18.946a1.607,1.607,0,0,1-1.542,1.7ZM5.546,2a.977.977,0,0,1,.994-.989h4.5A.977.977,0,0,1,12.04,2v.634H5.546ZM1.935,3.651H15.652a.913.913,0,0,1,0,1.826H1.935a.913.913,0,1,1,0-1.826Zm0,0" transform="translate(-21 0)" fill="#fff"/>
    <path id="Path_163" data-name="Path 163" d="M163.905,154.7a.507.507,0,0,0-.507.507V164.8a.507.507,0,1,0,1.015,0V155.21A.507.507,0,0,0,163.905,154.7Zm0,0" transform="translate(-176.112 -146.857)" fill="#fff"/>
  </g>
</svg>
