<svg xmlns="http://www.w3.org/2000/svg" width="24.447" height="16.298" viewBox="0 0 24.447 16.298">
  <g id="Group_300" data-name="Group 300" transform="translate(-332.276 -91.851)">
    <g id="menu_2_" data-name="menu (2)" transform="translate(332.364 93.415)">
      <path id="Path_149" data-name="Path 149" d="M24.112,2.291c0-.175-.4-.291-1-.291H1c-.6,0-1,.116-1,.291v.582c0,.175.4.291,1,.291h22.1c.6,0,1-.116,1-.291Z" transform="translate(0 -2)" fill="#fff"/>
      <path id="Path_150" data-name="Path 150" d="M24.112,10.291c0-.175-.4-.291-1-.291H1c-.6,0-1,.116-1,.291v.582c0,.175.4.291,1,.291h22.1c.6,0,1-.116,1-.291Z" transform="translate(0 -3.735)" fill="#fff"/>
      <path id="Path_151" data-name="Path 151" d="M24.112,18.291c0-.175-.4-.291-1-.291H1c-.6,0-1,.116-1,.291v.582c0,.175.4.291,1,.291h22.1c.6,0,1-.116,1-.291Z" transform="translate(0 -5.469)" fill="#fff"/>
    </g>
    <g id="Ellipse_68" data-name="Ellipse 68" transform="translate(332.276 91.851)" fill="#fff" stroke="#fff" stroke-width="1">
      <circle cx="2.328" cy="2.328" r="2.328" stroke="none"/>
      <circle cx="2.328" cy="2.328" r="1.828" fill="none"/>
    </g>
    <g id="Ellipse_69" data-name="Ellipse 69" transform="translate(342.754 97.672)" fill="#fff" stroke="#fff" stroke-width="1">
      <circle cx="2.328" cy="2.328" r="2.328" stroke="none"/>
      <circle cx="2.328" cy="2.328" r="1.828" fill="none"/>
    </g>
    <g id="Ellipse_70" data-name="Ellipse 70" transform="translate(352.067 103.492)" fill="#fff" stroke="#fff" stroke-width="1">
      <circle cx="2.328" cy="2.328" r="2.328" stroke="none"/>
      <circle cx="2.328" cy="2.328" r="1.828" fill="none"/>
    </g>
  </g>
</svg>
