<svg xmlns="http://www.w3.org/2000/svg" xmlns:xlink="http://www.w3.org/1999/xlink" width="35.476" height="38.674" viewBox="0 0 35.476 38.674">
  <defs>
    <filter id="Path_105" x="0.574" y="2.08" width="34.257" height="36.594" filterUnits="userSpaceOnUse">
      <feOffset dy="3" input="SourceAlpha"/>
      <feGaussianBlur stdDeviation="3" result="blur"/>
      <feFlood flood-opacity="0.161"/>
      <feComposite operator="in" in2="blur"/>
      <feComposite in="SourceGraphic"/>
    </filter>
    <filter id="Path_104" x="0" y="0" width="35.476" height="36.909" filterUnits="userSpaceOnUse">
      <feOffset dy="3" input="SourceAlpha"/>
      <feGaussianBlur stdDeviation="3" result="blur-2"/>
      <feFlood flood-opacity="0.161"/>
      <feComposite operator="in" in2="blur-2"/>
      <feComposite in="SourceGraphic"/>
    </filter>
    <filter id="Subtraction_1" x="8.742" y="0.081" width="25.463" height="35.698" filterUnits="userSpaceOnUse">
      <feOffset dy="3" input="SourceAlpha"/>
      <feGaussianBlur stdDeviation="3" result="blur-3"/>
      <feFlood flood-opacity="0.161"/>
      <feComposite operator="in" in2="blur-3"/>
      <feComposite in="SourceGraphic"/>
    </filter>
  </defs>
  <g id="Group_78" data-name="Group 78" transform="translate(-1391.294 -387.925)">
    <path id="Path_106" data-name="Path 106" d="M-.983,0H12.744s1.68,6.944,0,11.228-6.721,5.91-6.721,5.91S.768,15.512-.983,11.228-.983,0-.983,0Z" transform="translate(1403.133 398.787)" fill="#ffa200"/>
    <g transform="matrix(1, 0, 0, 1, 1391.29, 387.92)" filter="url(#Path_105)">
      <path id="Path_105-2" data-name="Path 105" d="M-1.082,0H13.55s1.791,7.534,0,12.182-7.163,6.412-7.163,6.412-5.6-1.763-7.468-6.412S-1.082,0-1.082,0Z" transform="translate(11.49 8.08)" fill="#ffa200"/>
    </g>
    <g transform="matrix(1, 0, 0, 1, 1391.29, 387.92)" filter="url(#Path_104)">
      <path id="Path_104-2" data-name="Path 104" d="M-1.4-1.79c.674-1.076,14.362-1.089,15.34,0s1.878,7.333,0,11.857-7.51,6.241-7.51,6.241S.557,14.592-1.4,10.067-2.075-.714-1.4-1.79Z" transform="translate(11.44 8.6)" fill="#ffa200"/>
    </g>
    <g transform="matrix(1, 0, 0, 1, 1391.29, 387.92)" filter="url(#Subtraction_1)">
      <path id="Subtraction_1-2" data-name="Subtraction 1" d="M.108,16.693h0l-.1-.035V-1.005c2.943.005,6.1.243,6.526.76A9.687,9.687,0,0,1,7.447,4.1a17.783,17.783,0,0,1-.916,6.755,9.755,9.755,0,0,1-3.814,4.509A12.583,12.583,0,0,1,.108,16.693Z" transform="translate(17.74 7.09)" fill="#ffa200"/>
    </g>
  </g>
</svg>
