<svg xmlns="http://www.w3.org/2000/svg" width="22.294" height="16.966" viewBox="0 0 22.294 16.966">
  <g id="Group_274" data-name="Group 274" transform="translate(-1366.012 -1012)">
    <g id="envelope_4_" data-name="envelope (4)" transform="translate(1366.012 800.626)">
      <g id="Group_12" data-name="Group 12" transform="translate(0 211.374)">
        <path id="Path_39" data-name="Path 39" d="M19.573,57.75H2.726A2.729,2.729,0,0,0,0,60.476V71.99a2.729,2.729,0,0,0,2.726,2.726H19.568a2.729,2.729,0,0,0,2.726-2.726V60.481A2.726,2.726,0,0,0,19.573,57.75Zm1.481,14.24a1.482,1.482,0,0,1-1.481,1.481H2.726A1.482,1.482,0,0,1,1.245,71.99V60.481A1.482,1.482,0,0,1,2.726,59H19.568a1.482,1.482,0,0,1,1.481,1.481V71.99Z" transform="translate(0 -57.75)" fill="#fff"/>
        <path id="Path_40" data-name="Path 40" d="M67.241,114.883l5.452-4.89a.624.624,0,1,0-.835-.927l-7.519,6.749-1.467-1.31s-.009-.009-.009-.014a.923.923,0,0,0-.1-.088l-5.969-5.342a.624.624,0,0,0-.83.932l5.517,4.931-5.494,5.143a.625.625,0,0,0-.028.881.637.637,0,0,0,.457.2.624.624,0,0,0,.424-.166l5.577-5.217,1.513,1.352a.621.621,0,0,0,.83,0l1.555-1.393,5.545,5.268a.624.624,0,0,0,.881-.023.625.625,0,0,0-.023-.881Z" transform="translate(-53.181 -106.543)" fill="#fff"/>
      </g>
    </g>
  </g>
</svg>
