<svg xmlns="http://www.w3.org/2000/svg" width="14.798" height="14.112" viewBox="0 0 14.798 14.112">
  <g id="star_with_fill" data-name="star with fill" transform="translate(0)">
    <path id="Path_91" data-name="Path 91" d="M7.749.684,9.631,5.14l4.819.414a.38.38,0,0,1,.216.665L11.011,9.386l1.1,4.711a.379.379,0,0,1-.566.411L7.4,12.01l-4.141,2.5a.38.38,0,0,1-.566-.411l1.1-4.711L.131,6.218a.38.38,0,0,1,.216-.665l4.819-.414L7.049.684a.379.379,0,0,1,.7,0Z" transform="translate(0 -0.452)" fill="#388ccb"/>
  </g>
</svg>
