<svg xmlns="http://www.w3.org/2000/svg" xmlns:xlink="http://www.w3.org/1999/xlink" width="48.603" height="53.911" viewBox="0 0 48.603 53.911">
  <defs>
    <clipPath id="clip-path">
      <circle id="Ellipse_36" data-name="Ellipse 36" cx="24.302" cy="24.302" r="24.302" fill="none" stroke="#388ccb" stroke-width="2"/>
    </clipPath>
  </defs>
  <g id="Group_150" data-name="Group 150" transform="translate(-455 -664)">
    <g id="Mask_Group_8" data-name="Mask Group 8" transform="translate(455 664)" clip-path="url(#clip-path)">
      <g id="team_3_" data-name="team (3)" transform="translate(-0.835 5.865)">
        <g id="Group_43" data-name="Group 43" transform="translate(38.752 15.825)">
          <g id="Group_42" data-name="Group 42" transform="translate(0 0)">
            <path id="Path_75" data-name="Path 75" d="M398.569,229.318a14.438,14.438,0,0,0-5.078-.869.74.74,0,0,0,0,1.48,12.777,12.777,0,0,1,4.417.713.74.74,0,0,0,.662-1.324Z" transform="translate(-392.751 -228.449)" fill="#388ccb"/>
          </g>
        </g>
        <g id="Group_45" data-name="Group 45">
          <g id="Group_44" data-name="Group 44">
            <path id="Path_76" data-name="Path 76" d="M48.259,95.3,45.2,94.422a.31.31,0,0,1-.224-.3v-1.02a5.563,5.563,0,0,0,.708-.58,5.444,5.444,0,0,0,1.666-3.938V87.179l.3-.591a4.721,4.721,0,0,0,.5-2.1V80.674a.74.74,0,0,0-.74-.74H40.283a4.7,4.7,0,0,0-4.7,4.7v.044A3.925,3.925,0,0,0,36,86.421l.379.758v1.209a5.774,5.774,0,0,0,2.374,4.668v1.069c0,.165,0,.233-.611.408l-1.491.426L32.336,93.39a.739.739,0,0,0-.2-.567l-1.378-1.448V88.944c.146-.12.289-.243.429-.374a8.685,8.685,0,0,0,2.736-6.314V80.315a8.554,8.554,0,0,0,.791-3.6V68.806a.74.74,0,0,0-.74-.74H22.894a7.078,7.078,0,0,0-7.07,7.07v1.583a8.554,8.554,0,0,0,.791,3.6v1.671a9.042,9.042,0,0,0,3.165,6.9v2.488L18.4,92.824a.739.739,0,0,0-.2.567l-4.553,1.656a3.881,3.881,0,0,0-.915.479l-.715-.357a5.652,5.652,0,0,0,2.835-2.294.74.74,0,0,0,0-.662,13.146,13.146,0,0,1-.65-4.594c-.017-.523-.034-1.017-.065-1.457a6.437,6.437,0,0,0-6.277-6.226,6.437,6.437,0,0,0-6.277,6.226c-.031.44-.048.934-.065,1.458a13.147,13.147,0,0,1-.65,4.594.74.74,0,0,0,0,.662,5.651,5.651,0,0,0,2.838,2.292l-1.986.993A3.1,3.1,0,0,0,0,98.944v5.467a.74.74,0,1,0,1.48,0V98.944a1.625,1.625,0,0,1,.9-1.461l2.473-1.236.86.817a3.112,3.112,0,0,0,4.29,0l.86-.817.806.4a3.9,3.9,0,0,0-.6,2.066v5.7a.74.74,0,1,0,1.48,0v-5.7a2.432,2.432,0,0,1,1.6-2.279l4.8-1.746,2,3a1.526,1.526,0,0,0,1.123.674q.077.008.153.008a1.525,1.525,0,0,0,1.081-.449L24.528,96.7v7.708a.74.74,0,0,0,1.48,0V96.7l1.219,1.219a1.525,1.525,0,0,0,1.081.449q.076,0,.153-.007a1.526,1.526,0,0,0,1.123-.674l2-3,4.8,1.746a2.432,2.432,0,0,1,1.6,2.279v5.7a.74.74,0,1,0,1.48,0v-5.7a3.912,3.912,0,0,0-1.095-2.708l.183-.052a4.056,4.056,0,0,0,.689-.249L41.125,97.6v6.815a.74.74,0,1,0,1.48,0V97.6l1.876-1.876a1.761,1.761,0,0,0,.315.125l3.056.873a1.641,1.641,0,0,1,1.185,1.571v6.122a.74.74,0,1,0,1.48,0V98.29A3.127,3.127,0,0,0,48.259,95.3ZM4.747,93.989a5.32,5.32,0,0,1-2.375-1.525,8.156,8.156,0,0,0,.422-1.772A5.518,5.518,0,0,0,4.747,93.1Zm4.239,2a1.633,1.633,0,0,1-2.251,0l-.688-.654a1.531,1.531,0,0,0,.18-.723v-.789a5.5,5.5,0,0,0,3.267,0v.788a1.531,1.531,0,0,0,.18.723Zm-1.125-3.4a4.012,4.012,0,0,1-4.007-4.007.735.735,0,0,0-.861-.729c0-.064,0-.127.006-.19.016-.509.032-.989.062-1.4a5.494,5.494,0,0,1,1.5-3.45,4.6,4.6,0,0,1,6.609,0,5.494,5.494,0,0,1,1.5,3.45c.029.412.045.893.062,1.4l0,.132a6.649,6.649,0,0,0-3.655-2.671,9.288,9.288,0,0,0-2.815-.446.74.74,0,0,0-.512.226L4.411,86.293A.74.74,0,1,0,5.476,87.32l1.111-1.152c.957.047,4.035.4,5.232,3.041A4,4,0,0,1,7.861,92.594Zm3.113,1.4v-.883A5.474,5.474,0,0,0,12.928,90.7a8.147,8.147,0,0,0,.421,1.768A5.345,5.345,0,0,1,10.975,93.991ZM18.1,81.986V80.15a.74.74,0,0,0-.074-.322,7.1,7.1,0,0,1-.718-3.11V75.136a5.6,5.6,0,0,1,5.59-5.59H33.232v7.172a7.1,7.1,0,0,1-.718,3.11.74.74,0,0,0-.074.322v2.107a7.1,7.1,0,0,1-2.268,5.234,7.359,7.359,0,0,1-.568.481l-.013.009a7.115,7.115,0,0,1-4.8,1.433A7.33,7.33,0,0,1,18.1,81.986Zm4.167,14.89a.046.046,0,0,1-.041.015.047.047,0,0,1-.038-.023l-2.3-3.452.741-.778,3.491,2.386Zm3.006-2.856-4.007-2.739V89.9a8.332,8.332,0,0,0,3.433.991q.293.019.582.019a8.571,8.571,0,0,0,4-.98v1.352Zm3.085,2.848a.047.047,0,0,1-.038.023.046.046,0,0,1-.041-.015l-1.852-1.852,3.491-2.387.741.778Zm13.513-.624-1.679-1.679a2.031,2.031,0,0,0,.046-.44v-.312a5.188,5.188,0,0,0,1.465.259l.17,0a5.5,5.5,0,0,0,1.632-.247v.3a1.769,1.769,0,0,0,.053.431Zm2.791-4.781a3.977,3.977,0,0,1-2.914,1.129,4.142,4.142,0,0,1-3.884-4.2V87a.739.739,0,0,0-.078-.331l-.457-.914a2.438,2.438,0,0,1-.256-1.084v-.044a3.22,3.22,0,0,1,3.216-3.216h6.381v3.073a3.233,3.233,0,0,1-.34,1.438l-.374.747a.74.74,0,0,0-.078.331v1.582A3.976,3.976,0,0,1,44.656,91.463Z" transform="translate(0 -68.066)" fill="#388ccb"/>
          </g>
        </g>
        <g id="Group_47" data-name="Group 47" transform="translate(45.873 30.858)">
          <g id="Group_46" data-name="Group 46">
            <path id="Path_77" data-name="Path 77" d="M465.663,380.814a.74.74,0,0,0-.74.74V386.3a.74.74,0,1,0,1.48,0v-4.747A.74.74,0,0,0,465.663,380.814Z" transform="translate(-464.923 -380.814)" fill="#388ccb"/>
          </g>
        </g>
        <g id="Group_49" data-name="Group 49" transform="translate(3.165 31.836)">
          <g id="Group_48" data-name="Group 48" transform="translate(0 0)">
            <path id="Path_78" data-name="Path 78" d="M32.817,390.728a.74.74,0,0,0-.74.74v3.769a.74.74,0,1,0,1.48,0v-3.769A.74.74,0,0,0,32.817,390.728Z" transform="translate(-32.077 -390.728)" fill="#388ccb"/>
          </g>
        </g>
        <g id="Group_51" data-name="Group 51" transform="translate(18.99 6.723)">
          <g id="Group_50" data-name="Group 50" transform="translate(0 0)">
            <path id="Path_79" data-name="Path 79" d="M204.8,138.4c-2.8-2.8-8.655-2.264-11.043-1.9a1.519,1.519,0,0,0-1.3,1.513v1.7a.74.74,0,1,0,1.48,0v-1.7a.049.049,0,0,1,.039-.05,23.379,23.379,0,0,1,4.808-.235c2.308.154,3.979.733,4.968,1.722A.74.74,0,0,0,204.8,138.4Z" transform="translate(-192.46 -136.203)" fill="#388ccb"/>
          </g>
        </g>
        <g id="Group_53" data-name="Group 53" transform="translate(15.825 32.441)">
          <g id="Group_52" data-name="Group 52">
            <path id="Path_80" data-name="Path 80" d="M161.124,396.853a.74.74,0,0,0-.74.74v3.165a.74.74,0,1,0,1.48,0v-3.165A.74.74,0,0,0,161.124,396.853Z" transform="translate(-160.384 -396.853)" fill="#388ccb"/>
          </g>
        </g>
        <g id="Group_55" data-name="Group 55" transform="translate(33.232 32.441)">
          <g id="Group_54" data-name="Group 54">
            <path id="Path_81" data-name="Path 81" d="M337.546,396.853a.74.74,0,0,0-.74.74v3.165a.74.74,0,0,0,1.48,0v-3.165A.74.74,0,0,0,337.546,396.853Z" transform="translate(-336.806 -396.853)" fill="#388ccb"/>
          </g>
        </g>
      </g>
    </g>
    <g id="Ellipse_36-2" data-name="Ellipse 36" transform="translate(455 664)" fill="none" stroke="#388ccb" stroke-width="2">
      <circle cx="24.302" cy="24.302" r="24.302" stroke="none"/>
      <circle cx="24.302" cy="24.302" r="23.302" fill="none"/>
    </g>
    <g id="Rectangle_274" data-name="Rectangle 274" transform="matrix(0.788, -0.616, 0.616, 0.788, 492.458, 708.005)" fill="#388ccb" stroke="#388ccb" stroke-width="1">
      <path d="M0,0H2.514a0,0,0,0,1,0,0V11.313A1.257,1.257,0,0,1,1.257,12.57h0A1.257,1.257,0,0,1,0,11.313V0A0,0,0,0,1,0,0Z" stroke="none"/>
      <path d="M.752.5H1.762a.252.252,0,0,1,.252.252v10.56a.757.757,0,0,1-.757.757h0A.757.757,0,0,1,.5,11.313V.752A.252.252,0,0,1,.752.5Z" fill="none"/>
    </g>
  </g>
</svg>
