<svg xmlns="http://www.w3.org/2000/svg" width="48.603" height="53.91" viewBox="0 0 48.603 53.91">
  <g id="Group_150" data-name="Group 150" transform="translate(-455 -664)">
    <g id="Ellipse_36" data-name="Ellipse 36" transform="translate(455 664)" fill="none" stroke="#388ccb" stroke-width="2">
      <circle cx="24.302" cy="24.302" r="24.302" stroke="none"/>
      <circle cx="24.302" cy="24.302" r="23.302" fill="none"/>
    </g>
    <g id="Rectangle_274" data-name="Rectangle 274" transform="matrix(0.788, -0.616, 0.616, 0.788, 492.458, 708.005)" fill="#388ccb" stroke="#388ccb" stroke-width="1">
      <path d="M0,0H2.514a0,0,0,0,1,0,0V11.313A1.257,1.257,0,0,1,1.257,12.57h0A1.257,1.257,0,0,1,0,11.313V0A0,0,0,0,1,0,0Z" stroke="none"/>
      <path d="M.752.5H1.762a.252.252,0,0,1,.252.252v10.56a.757.757,0,0,1-.757.757h0A.757.757,0,0,1,.5,11.313V.752A.252.252,0,0,1,.752.5Z" fill="none"/>
    </g>
    <path id="suitcase" d="M28.481,4.5h-6.5v-2a2.5,2.5,0,0,0-2.5-2.5H10.493a2.5,2.5,0,0,0-2.5,2.5v2H1.5A1.5,1.5,0,0,0,0,6V17.119a1.506,1.506,0,0,0,1,1.411v6.954a1.5,1.5,0,0,0,1.5,1.5H27.482a1.5,1.5,0,0,0,1.5-1.5V18.53a1.506,1.506,0,0,0,1-1.411V6a1.5,1.5,0,0,0-1.5-1.5ZM8.994,2.5a1.5,1.5,0,0,1,1.5-1.5h8.994a1.5,1.5,0,0,1,1.5,1.5v2h-1v-2a.5.5,0,0,0-.5-.5H10.493a.5.5,0,0,0-.5.5v2h-1Zm9.993,2H10.993V3h7.995Zm8.994,20.986a.5.5,0,0,1-.5.5H2.5a.5.5,0,0,1-.5-.5V18.7l10.993,1.516v1.269a1.5,1.5,0,0,0,1.5,1.5h1a1.5,1.5,0,0,0,1.5-1.5V20.217L27.981,18.7Zm-11.992-4a.5.5,0,0,1-.5.5h-1a.5.5,0,0,1-.5-.5v-3a.5.5,0,0,1,.5-.5h1a.5.5,0,0,1,.5.5Zm12.991-4.367a.5.5,0,0,1-.43.5l-.139.019L16.989,19.208v-.72a1.5,1.5,0,0,0-1.5-1.5h-1a1.5,1.5,0,0,0-1.5,1.5v.72L1.43,17.614a.5.5,0,0,1-.43-.5V6a.5.5,0,0,1,.5-.5H28.481a.5.5,0,0,1,.5.5Zm0,0" transform="translate(463.899 673.982)" fill="#388ccb"/>
  </g>
</svg>
