<svg xmlns="http://www.w3.org/2000/svg" width="53.964" height="53.964" viewBox="0 0 53.964 53.964">
  <g id="agreement" transform="translate(0)">
    <path id="Path_83" data-name="Path 83" d="M219.482,115.482a1.743,1.743,0,0,1,1.741,1.741h1.741a3.477,3.477,0,0,0-2.611-3.358V112h-1.741v1.864a3.474,3.474,0,0,0,.87,6.839,1.741,1.741,0,1,1-1.741,1.741H216a3.477,3.477,0,0,0,2.611,3.358v1.864h1.741V125.8a3.474,3.474,0,0,0-.87-6.839,1.741,1.741,0,0,1,0-3.482Zm0,0" transform="translate(-192.5 -99.815)" fill="#388ccb"/>
    <path id="Path_84" data-name="Path 84" d="M53.964,22.63V15.667H48.741V0h-35.2L5.222,9.24v6.427H0V22.63H5.222v2.952L1.893,24.371H0V43.52H7.6l.456-1.461,3.678,2.207,2.439.635a2.7,2.7,0,0,0,2.371,3.831,2.68,2.68,0,0,0,3.609,2.455,2.688,2.688,0,0,0,4.186,1.368l.644.644a2.592,2.592,0,0,0,1.846.765h.15a2.607,2.607,0,0,0,2.445-1.723,2.584,2.584,0,0,0,4.422-1.091,2.556,2.556,0,0,0,3.482-1.741A2.574,2.574,0,0,0,40.908,47v-.29a2.62,2.62,0,0,0-.523-1.567l-.288-.384,3.232-2.586.422,1.345H53.964V24.371H52.223l-3.482.985V22.63ZM13.926,2.172V8.7H8.046ZM6.963,10.445h8.7v-8.7H47V15.667H41.778V12.3L31.5,19.149,41.778,26V22.63H47v3.219l-8.06,2.281.754,2.412-10.852.723a6.064,6.064,0,0,0-2.32.629l-1.863.931A6.086,6.086,0,0,0,22,32.2h-6.13l-4.094-2.047.615-1.968-5.43-1.975V22.63h5.222V26l10.273-6.849L12.185,12.3v3.368H6.963ZM1.74,20.889V17.408H13.926V15.553l5.394,3.6-5.394,3.6V20.889ZM6.323,41.779H1.74V26.167l8.5,3.089Zm6.2.928L8.594,40.35l2.659-8.509,4.208,2.1H22a4.35,4.35,0,0,1,2.306.661l4.733,2.958a1.168,1.168,0,0,1,.551,1v.3a1.174,1.174,0,0,1-1.778,1.007L24.546,37.91a3.455,3.455,0,0,0-4.14.51L15.4,43.427Zm15.33,8.647a.872.872,0,0,1-.87.87h-.15a.877.877,0,0,1-.615-.255l-.721-.721a.866.866,0,0,1-.255-.616v-.149a.872.872,0,0,1,.87-.87h.15a.877.877,0,0,1,.615.255l.721.721a.866.866,0,0,1,.255.616Zm4.352-.87a.87.87,0,0,1-1.567.522L28.9,48.684a.874.874,0,0,1-.174-.522v-.29a.87.87,0,0,1,1.567-.522l1.741,2.321a.874.874,0,0,1,.174.522Zm3.482-1.741a.87.87,0,0,1-1.567.522l-1.741-2.321a.874.874,0,0,1-.174-.522v-.29a.87.87,0,0,1,1.567-.522l1.741,2.321a.874.874,0,0,1,.174.522ZM39.167,47a.87.87,0,0,1-1.567.522L35.86,45.2a.874.874,0,0,1-.174-.522v-.29a.87.87,0,0,1,1.567-.522l1.741,2.321a.874.874,0,0,1,.174.522Zm-.115-3.634-.408-.544a2.6,2.6,0,0,0-4.6.9,2.556,2.556,0,0,0-3.482,1.741,2.574,2.574,0,0,0-3.578,2.408v.113a2.6,2.6,0,0,0-.721-.113h-.15A2.615,2.615,0,0,0,23.5,50.483v.149a2.581,2.581,0,0,0,.032.329l-.107.107a.976.976,0,0,1-1.666-.69.969.969,0,0,1,.286-.69l3.811-3.811-1.231-1.231-4.682,4.682a.976.976,0,0,1-1.666-.69.969.969,0,0,1,.286-.69l4.682-4.682-1.231-1.231-4.682,4.682a.976.976,0,0,1-1.666-.69.969.969,0,0,1,.286-.69l5.684-5.684A1.679,1.679,0,0,1,23.65,39.4l3.268,1.961a2.916,2.916,0,0,0,4.416-2.5v-.3a2.9,2.9,0,0,0-1.37-2.472l-3.526-2.2.864-.432A4.318,4.318,0,0,1,28.957,33l11.271-.751,2.543,8.14ZM52.223,26.147V41.779H45.029l-3.9-12.464ZM40.038,20.889v1.855l-5.394-3.6,5.394-3.6v1.855H52.223v3.482Zm0,0" fill="#388ccb"/>
    <path id="Path_85" data-name="Path 85" d="M160,32h27.853v1.741H160Zm0,0" transform="translate(-142.593 -28.518)" fill="#388ccb"/>
    <path id="Path_86" data-name="Path 86" d="M160,64h27.853v1.741H160Zm0,0" transform="translate(-142.593 -57.037)" fill="#388ccb"/>
  </g>
</svg>
